<mxfile host="app.diagrams.net" agent="Mozilla/5.0 (Windows NT 10.0; Win64; x64) AppleWebKit/537.36 (KHTML, like Gecko) Chrome/135.0.0.0 Safari/537.36" version="24.8.4">
  <diagram name="Страница — 1" id="qq06UhHZfoiHL8ZSoJLL">
    <mxGraphModel>
      <root>
        <mxCell id="0" />
        <mxCell id="1" parent="0" />
        <mxCell id="2" value="Пользователь" style="whiteSpace=wrap;strokeWidth=2;" vertex="1" parent="1">
          <mxGeometry x="577" y="8" width="161" height="49" as="geometry" />
        </mxCell>
        <mxCell id="3" value="Система" style="rounded=1;arcSize=40;strokeWidth=2" vertex="1" parent="1">
          <mxGeometry x="234" y="130" width="92" height="49" as="geometry" />
        </mxCell>
        <mxCell id="4" value="Проверка данных?" style="rhombus;strokeWidth=2;whiteSpace=wrap;" vertex="1" parent="1">
          <mxGeometry x="188" y="229" width="184" height="184" as="geometry" />
        </mxCell>
        <mxCell id="5" value="Обработка данных" style="whiteSpace=wrap;strokeWidth=2;" vertex="1" parent="1">
          <mxGeometry x="157" y="486" width="198" height="49" as="geometry" />
        </mxCell>
        <mxCell id="6" value="Сообщение об ошибке" style="whiteSpace=wrap;strokeWidth=2;" vertex="1" parent="1">
          <mxGeometry x="406" y="486" width="226" height="49" as="geometry" />
        </mxCell>
        <mxCell id="7" value="Данные валидны?" style="rhombus;strokeWidth=2;whiteSpace=wrap;" vertex="1" parent="1">
          <mxGeometry x="165" y="585" width="181" height="181" as="geometry" />
        </mxCell>
        <mxCell id="8" value="Сохранение данных" style="whiteSpace=wrap;strokeWidth=2;" vertex="1" parent="1">
          <mxGeometry x="128" y="840" width="208" height="49" as="geometry" />
        </mxCell>
        <mxCell id="9" value="Уведомление об ошибке" style="whiteSpace=wrap;strokeWidth=2;" vertex="1" parent="1">
          <mxGeometry x="477" y="840" width="244" height="49" as="geometry" />
        </mxCell>
        <mxCell id="10" value="Генерация отчета" style="rounded=1;arcSize=40;strokeWidth=2" vertex="1" parent="1">
          <mxGeometry x="151" y="939" width="162" height="49" as="geometry" />
        </mxCell>
        <mxCell id="11" value="Отчет завершен?" style="rhombus;strokeWidth=2;whiteSpace=wrap;" vertex="1" parent="1">
          <mxGeometry x="37" y="1038" width="174" height="174" as="geometry" />
        </mxCell>
        <mxCell id="12" value="Отправка отчета пользователю" style="whiteSpace=wrap;strokeWidth=2;" vertex="1" parent="1">
          <mxGeometry x="8" y="1284" width="183" height="67" as="geometry" />
        </mxCell>
        <mxCell id="13" value="Обработка некорректных данных" style="whiteSpace=wrap;strokeWidth=2;" vertex="1" parent="1">
          <mxGeometry x="245" y="1284" width="248" height="67" as="geometry" />
        </mxCell>
        <mxCell id="14" value="Завершение процесса" style="whiteSpace=wrap;strokeWidth=2;" vertex="1" parent="1">
          <mxGeometry x="428" y="1401" width="224" height="49" as="geometry" />
        </mxCell>
        <mxCell id="15" value="вводит данные" style="curved=1;startArrow=none;endArrow=block;exitX=0;exitY=0.77;entryX=0.5;entryY=0;" edge="1" parent="1" source="2" target="3">
          <mxGeometry relative="1" as="geometry">
            <Array as="points">
              <mxPoint x="280" y="94" />
            </Array>
          </mxGeometry>
        </mxCell>
        <mxCell id="16" value="" style="curved=1;startArrow=none;endArrow=block;exitX=0.5;exitY=1;entryX=0.5;entryY=0;" edge="1" parent="1" source="3" target="4">
          <mxGeometry relative="1" as="geometry">
            <Array as="points" />
          </mxGeometry>
        </mxCell>
        <mxCell id="17" value="Да" style="curved=1;startArrow=none;endArrow=block;exitX=0.41;exitY=1;entryX=0.5;entryY=0.01;" edge="1" parent="1" source="4" target="5">
          <mxGeometry relative="1" as="geometry">
            <Array as="points">
              <mxPoint x="256" y="450" />
            </Array>
          </mxGeometry>
        </mxCell>
        <mxCell id="18" value="Нет" style="curved=1;startArrow=none;endArrow=block;exitX=1;exitY=0.99;entryX=0.31;entryY=0.01;" edge="1" parent="1" source="4" target="6">
          <mxGeometry relative="1" as="geometry">
            <Array as="points">
              <mxPoint x="412" y="450" />
            </Array>
          </mxGeometry>
        </mxCell>
        <mxCell id="19" value="" style="curved=1;startArrow=none;endArrow=block;exitX=0.62;exitY=0.01;entryX=0.32;entryY=1;" edge="1" parent="1" source="6" target="2">
          <mxGeometry relative="1" as="geometry">
            <Array as="points">
              <mxPoint x="584" y="450" />
              <mxPoint x="584" y="94" />
            </Array>
          </mxGeometry>
        </mxCell>
        <mxCell id="20" value="" style="curved=1;startArrow=none;endArrow=block;exitX=0.5;exitY=1.01;entryX=0.5;entryY=0;" edge="1" parent="1" source="5" target="7">
          <mxGeometry relative="1" as="geometry">
            <Array as="points" />
          </mxGeometry>
        </mxCell>
        <mxCell id="21" value="Да" style="curved=1;startArrow=none;endArrow=block;exitX=0.41;exitY=1;entryX=0.5;entryY=0;" edge="1" parent="1" source="7" target="8">
          <mxGeometry relative="1" as="geometry">
            <Array as="points">
              <mxPoint x="232" y="803" />
            </Array>
          </mxGeometry>
        </mxCell>
        <mxCell id="22" value="Нет" style="curved=1;startArrow=none;endArrow=block;exitX=1.01;exitY=0.97;entryX=0.16;entryY=0;" edge="1" parent="1" source="7" target="9">
          <mxGeometry relative="1" as="geometry">
            <Array as="points">
              <mxPoint x="394" y="803" />
            </Array>
          </mxGeometry>
        </mxCell>
        <mxCell id="23" value="" style="curved=1;startArrow=none;endArrow=block;exitX=0.61;exitY=0;entryX=0.53;entryY=1;" edge="1" parent="1" source="9" target="2">
          <mxGeometry relative="1" as="geometry">
            <Array as="points">
              <mxPoint x="668" y="803" />
              <mxPoint x="668" y="94" />
            </Array>
          </mxGeometry>
        </mxCell>
        <mxCell id="24" value="" style="curved=1;startArrow=none;endArrow=block;exitX=0.5;exitY=1;entryX=0.5;entryY=0;" edge="1" parent="1" source="8" target="10">
          <mxGeometry relative="1" as="geometry">
            <Array as="points" />
          </mxGeometry>
        </mxCell>
        <mxCell id="25" value="" style="curved=1;startArrow=none;endArrow=block;exitX=0.17;exitY=1;entryX=0.5;entryY=0;" edge="1" parent="1" source="10" target="11">
          <mxGeometry relative="1" as="geometry">
            <Array as="points">
              <mxPoint x="123" y="1013" />
            </Array>
          </mxGeometry>
        </mxCell>
        <mxCell id="26" value="Да" style="curved=1;startArrow=none;endArrow=block;exitX=0.4;exitY=1;entryX=0.5;entryY=0.01;" edge="1" parent="1" source="11" target="12">
          <mxGeometry relative="1" as="geometry">
            <Array as="points">
              <mxPoint x="99" y="1248" />
            </Array>
          </mxGeometry>
        </mxCell>
        <mxCell id="27" value="Нет" style="curved=1;startArrow=none;endArrow=block;exitX=1;exitY=0.95;entryX=0.29;entryY=0.01;" edge="1" parent="1" source="11" target="13">
          <mxGeometry relative="1" as="geometry">
            <Array as="points">
              <mxPoint x="260" y="1248" />
            </Array>
          </mxGeometry>
        </mxCell>
        <mxCell id="28" value="" style="curved=1;startArrow=none;endArrow=block;exitX=0.63;exitY=0.01;entryX=1;entryY=0.89;" edge="1" parent="1" source="13" target="10">
          <mxGeometry relative="1" as="geometry">
            <Array as="points">
              <mxPoint x="438" y="1248" />
              <mxPoint x="438" y="1013" />
            </Array>
          </mxGeometry>
        </mxCell>
        <mxCell id="29" value="" style="curved=1;startArrow=none;endArrow=block;exitX=0.5;exitY=1;entryX=0;entryY=0.24;" edge="1" parent="1" source="12" target="14">
          <mxGeometry relative="1" as="geometry">
            <Array as="points">
              <mxPoint x="99" y="1376" />
            </Array>
          </mxGeometry>
        </mxCell>
        <mxCell id="30" value="" style="curved=1;startArrow=none;endArrow=block;exitX=0.98;exitY=0;entryX=0.75;entryY=1;" edge="1" parent="1" source="14" target="2">
          <mxGeometry relative="1" as="geometry">
            <Array as="points">
              <mxPoint x="756" y="1376" />
              <mxPoint x="756" y="94" />
            </Array>
          </mxGeometry>
        </mxCell>
      </root>
    </mxGraphModel>
  </diagram>
</mxfile>
